<mxfile host="65bd71144e">
    <diagram id="C5RBs43oDa-KdzZeNtuy" name="Page-1">
        <mxGraphModel dx="600" dy="1656" grid="1" gridSize="10" guides="1" tooltips="1" connect="1" arrows="1" fold="1" page="1" pageScale="1" pageWidth="827" pageHeight="1169" math="0" shadow="0">
            <root>
                <mxCell id="WIyWlLk6GJQsqaUBKTNV-0"/>
                <mxCell id="WIyWlLk6GJQsqaUBKTNV-1" parent="WIyWlLk6GJQsqaUBKTNV-0"/>
                <mxCell id="_uoD1ZFytrmZBjL5e5ex-27" value="" style="edgeStyle=orthogonalEdgeStyle;rounded=0;orthogonalLoop=1;jettySize=auto;html=1;" parent="WIyWlLk6GJQsqaUBKTNV-1" source="WIyWlLk6GJQsqaUBKTNV-3" target="_uoD1ZFytrmZBjL5e5ex-24" edge="1">
                    <mxGeometry relative="1" as="geometry"/>
                </mxCell>
                <mxCell id="WIyWlLk6GJQsqaUBKTNV-3" value="登入/第三方登入" style="rounded=1;whiteSpace=wrap;html=1;fontSize=12;glass=0;strokeWidth=1;shadow=0;" parent="WIyWlLk6GJQsqaUBKTNV-1" vertex="1">
                    <mxGeometry x="280" y="670" width="80" height="40" as="geometry"/>
                </mxCell>
                <mxCell id="_uoD1ZFytrmZBjL5e5ex-5" value="註冊" style="rounded=1;whiteSpace=wrap;html=1;" parent="WIyWlLk6GJQsqaUBKTNV-1" vertex="1">
                    <mxGeometry x="520" y="670" width="78" height="40" as="geometry"/>
                </mxCell>
                <mxCell id="_uoD1ZFytrmZBjL5e5ex-17" value="註冊成功導回" style="text;html=1;strokeColor=none;fillColor=none;align=center;verticalAlign=middle;whiteSpace=wrap;rounded=0;" parent="WIyWlLk6GJQsqaUBKTNV-1" vertex="1">
                    <mxGeometry x="410" y="740" width="60" height="30" as="geometry"/>
                </mxCell>
                <mxCell id="_uoD1ZFytrmZBjL5e5ex-35" value="" style="edgeStyle=orthogonalEdgeStyle;rounded=0;orthogonalLoop=1;jettySize=auto;html=1;" parent="WIyWlLk6GJQsqaUBKTNV-1" source="_uoD1ZFytrmZBjL5e5ex-19" target="_uoD1ZFytrmZBjL5e5ex-34" edge="1">
                    <mxGeometry relative="1" as="geometry"/>
                </mxCell>
                <mxCell id="_uoD1ZFytrmZBjL5e5ex-97" value="" style="edgeStyle=orthogonalEdgeStyle;rounded=0;orthogonalLoop=1;jettySize=auto;html=1;" parent="WIyWlLk6GJQsqaUBKTNV-1" source="_uoD1ZFytrmZBjL5e5ex-19" target="_uoD1ZFytrmZBjL5e5ex-96" edge="1">
                    <mxGeometry relative="1" as="geometry"/>
                </mxCell>
                <mxCell id="_uoD1ZFytrmZBjL5e5ex-19" value="商城主頁" style="rounded=1;whiteSpace=wrap;html=1;" parent="WIyWlLk6GJQsqaUBKTNV-1" vertex="1">
                    <mxGeometry x="260" y="570" width="120" height="40" as="geometry"/>
                </mxCell>
                <mxCell id="_uoD1ZFytrmZBjL5e5ex-20" value="成功導回主頁" style="text;html=1;strokeColor=none;fillColor=none;align=center;verticalAlign=middle;whiteSpace=wrap;rounded=0;" parent="WIyWlLk6GJQsqaUBKTNV-1" vertex="1">
                    <mxGeometry x="260" y="630" width="60" height="30" as="geometry"/>
                </mxCell>
                <mxCell id="_uoD1ZFytrmZBjL5e5ex-23" value="" style="endArrow=classic;startArrow=classic;html=1;rounded=0;entryX=0.5;entryY=1;entryDx=0;entryDy=0;exitX=0.5;exitY=0;exitDx=0;exitDy=0;" parent="WIyWlLk6GJQsqaUBKTNV-1" source="WIyWlLk6GJQsqaUBKTNV-3" target="_uoD1ZFytrmZBjL5e5ex-19" edge="1">
                    <mxGeometry width="50" height="50" relative="1" as="geometry">
                        <mxPoint x="295" y="680" as="sourcePoint"/>
                        <mxPoint x="320" y="640" as="targetPoint"/>
                    </mxGeometry>
                </mxCell>
                <mxCell id="_uoD1ZFytrmZBjL5e5ex-25" value="" style="edgeStyle=orthogonalEdgeStyle;rounded=0;orthogonalLoop=1;jettySize=auto;html=1;" parent="WIyWlLk6GJQsqaUBKTNV-1" source="_uoD1ZFytrmZBjL5e5ex-24" edge="1">
                    <mxGeometry relative="1" as="geometry">
                        <mxPoint x="360" y="690" as="targetPoint"/>
                    </mxGeometry>
                </mxCell>
                <mxCell id="_uoD1ZFytrmZBjL5e5ex-26" value="" style="edgeStyle=orthogonalEdgeStyle;rounded=0;orthogonalLoop=1;jettySize=auto;html=1;" parent="WIyWlLk6GJQsqaUBKTNV-1" source="_uoD1ZFytrmZBjL5e5ex-24" target="_uoD1ZFytrmZBjL5e5ex-5" edge="1">
                    <mxGeometry relative="1" as="geometry"/>
                </mxCell>
                <mxCell id="_uoD1ZFytrmZBjL5e5ex-24" value="選擇註冊&lt;br&gt;/&lt;br&gt;離開商城" style="ellipse;whiteSpace=wrap;html=1;aspect=fixed;" parent="WIyWlLk6GJQsqaUBKTNV-1" vertex="1">
                    <mxGeometry x="400" y="650" width="80" height="80" as="geometry"/>
                </mxCell>
                <mxCell id="_uoD1ZFytrmZBjL5e5ex-28" value="失敗" style="text;html=1;strokeColor=none;fillColor=none;align=center;verticalAlign=middle;whiteSpace=wrap;rounded=0;" parent="WIyWlLk6GJQsqaUBKTNV-1" vertex="1">
                    <mxGeometry x="350" y="660" width="60" height="30" as="geometry"/>
                </mxCell>
                <mxCell id="_uoD1ZFytrmZBjL5e5ex-29" value="" style="curved=1;endArrow=classic;html=1;rounded=0;entryX=0.75;entryY=1;entryDx=0;entryDy=0;exitX=0.5;exitY=1;exitDx=0;exitDy=0;" parent="WIyWlLk6GJQsqaUBKTNV-1" source="_uoD1ZFytrmZBjL5e5ex-5" target="WIyWlLk6GJQsqaUBKTNV-3" edge="1">
                    <mxGeometry width="50" height="50" relative="1" as="geometry">
                        <mxPoint x="430" y="820" as="sourcePoint"/>
                        <mxPoint x="450" y="800" as="targetPoint"/>
                        <Array as="points">
                            <mxPoint x="480" y="770"/>
                            <mxPoint x="400" y="770"/>
                        </Array>
                    </mxGeometry>
                </mxCell>
                <mxCell id="_uoD1ZFytrmZBjL5e5ex-43" value="" style="edgeStyle=orthogonalEdgeStyle;rounded=0;orthogonalLoop=1;jettySize=auto;html=1;" parent="WIyWlLk6GJQsqaUBKTNV-1" source="_uoD1ZFytrmZBjL5e5ex-34" edge="1">
                    <mxGeometry relative="1" as="geometry">
                        <mxPoint x="580" y="590" as="targetPoint"/>
                    </mxGeometry>
                </mxCell>
                <mxCell id="_uoD1ZFytrmZBjL5e5ex-34" value="商品頁面" style="whiteSpace=wrap;html=1;rounded=1;" parent="WIyWlLk6GJQsqaUBKTNV-1" vertex="1">
                    <mxGeometry x="450" y="570" width="70" height="40" as="geometry"/>
                </mxCell>
                <mxCell id="_uoD1ZFytrmZBjL5e5ex-36" value="選擇商品" style="text;html=1;strokeColor=none;fillColor=none;align=center;verticalAlign=middle;whiteSpace=wrap;rounded=0;" parent="WIyWlLk6GJQsqaUBKTNV-1" vertex="1">
                    <mxGeometry x="380" y="560" width="60" height="30" as="geometry"/>
                </mxCell>
                <mxCell id="_uoD1ZFytrmZBjL5e5ex-40" value="數量+" style="text;html=1;strokeColor=none;fillColor=none;align=center;verticalAlign=middle;whiteSpace=wrap;rounded=0;" parent="WIyWlLk6GJQsqaUBKTNV-1" vertex="1">
                    <mxGeometry x="510" y="560" width="60" height="30" as="geometry"/>
                </mxCell>
                <mxCell id="_uoD1ZFytrmZBjL5e5ex-50" value="" style="edgeStyle=orthogonalEdgeStyle;rounded=0;orthogonalLoop=1;jettySize=auto;html=1;" parent="WIyWlLk6GJQsqaUBKTNV-1" source="_uoD1ZFytrmZBjL5e5ex-44" target="_uoD1ZFytrmZBjL5e5ex-47" edge="1">
                    <mxGeometry relative="1" as="geometry"/>
                </mxCell>
                <mxCell id="_uoD1ZFytrmZBjL5e5ex-44" value="購物數量&lt;br&gt;增加" style="ellipse;whiteSpace=wrap;html=1;aspect=fixed;" parent="WIyWlLk6GJQsqaUBKTNV-1" vertex="1">
                    <mxGeometry x="554" y="555" width="70" height="70" as="geometry"/>
                </mxCell>
                <mxCell id="_uoD1ZFytrmZBjL5e5ex-65" value="" style="edgeStyle=orthogonalEdgeStyle;rounded=0;orthogonalLoop=1;jettySize=auto;html=1;" parent="WIyWlLk6GJQsqaUBKTNV-1" source="_uoD1ZFytrmZBjL5e5ex-47" target="_uoD1ZFytrmZBjL5e5ex-56" edge="1">
                    <mxGeometry relative="1" as="geometry"/>
                </mxCell>
                <mxCell id="_uoD1ZFytrmZBjL5e5ex-47" value="購物車頁面" style="rounded=1;whiteSpace=wrap;html=1;" parent="WIyWlLk6GJQsqaUBKTNV-1" vertex="1">
                    <mxGeometry x="650" y="570" width="80" height="40" as="geometry"/>
                </mxCell>
                <mxCell id="_uoD1ZFytrmZBjL5e5ex-56" value="送出訂單/返回購物" style="rounded=1;whiteSpace=wrap;html=1;" parent="WIyWlLk6GJQsqaUBKTNV-1" vertex="1">
                    <mxGeometry x="760" y="570" width="90" height="40" as="geometry"/>
                </mxCell>
                <mxCell id="_uoD1ZFytrmZBjL5e5ex-58" value="" style="curved=1;endArrow=classic;html=1;rounded=0;exitX=0.5;exitY=0;exitDx=0;exitDy=0;entryX=0.5;entryY=0;entryDx=0;entryDy=0;" parent="WIyWlLk6GJQsqaUBKTNV-1" source="_uoD1ZFytrmZBjL5e5ex-19" target="_uoD1ZFytrmZBjL5e5ex-47" edge="1">
                    <mxGeometry width="50" height="50" relative="1" as="geometry">
                        <mxPoint x="320" y="550" as="sourcePoint"/>
                        <mxPoint x="820" y="560" as="targetPoint"/>
                        <Array as="points">
                            <mxPoint x="510" y="510"/>
                        </Array>
                    </mxGeometry>
                </mxCell>
                <mxCell id="_uoD1ZFytrmZBjL5e5ex-63" value="" style="curved=1;endArrow=classic;html=1;rounded=0;entryX=0.903;entryY=1.025;entryDx=0;entryDy=0;entryPerimeter=0;exitX=0.5;exitY=1;exitDx=0;exitDy=0;" parent="WIyWlLk6GJQsqaUBKTNV-1" source="_uoD1ZFytrmZBjL5e5ex-56" target="_uoD1ZFytrmZBjL5e5ex-19" edge="1">
                    <mxGeometry width="50" height="50" relative="1" as="geometry">
                        <mxPoint x="750" y="520" as="sourcePoint"/>
                        <mxPoint x="800" y="470" as="targetPoint"/>
                        <Array as="points">
                            <mxPoint x="600" y="670"/>
                        </Array>
                    </mxGeometry>
                </mxCell>
                <mxCell id="_uoD1ZFytrmZBjL5e5ex-66" value="&#10;&#10;&lt;span style=&quot;color: rgb(0, 0, 0); font-family: helvetica; font-size: 12px; font-style: normal; font-weight: 400; letter-spacing: normal; text-align: center; text-indent: 0px; text-transform: none; word-spacing: 0px; background-color: rgb(248, 249, 250); display: inline; float: none;&quot;&gt;返回購物&lt;/span&gt;&#10;&#10;" style="text;html=1;strokeColor=none;fillColor=none;align=center;verticalAlign=middle;whiteSpace=wrap;rounded=0;" parent="WIyWlLk6GJQsqaUBKTNV-1" vertex="1">
                    <mxGeometry x="610" y="630" width="60" height="30" as="geometry"/>
                </mxCell>
                <mxCell id="_uoD1ZFytrmZBjL5e5ex-67" value="" style="endArrow=classic;html=1;rounded=0;entryX=0;entryY=0.5;entryDx=0;entryDy=0;" parent="WIyWlLk6GJQsqaUBKTNV-1" target="_uoD1ZFytrmZBjL5e5ex-72" edge="1">
                    <mxGeometry width="50" height="50" relative="1" as="geometry">
                        <mxPoint x="850" y="590" as="sourcePoint"/>
                        <mxPoint x="900" y="590" as="targetPoint"/>
                        <Array as="points"/>
                    </mxGeometry>
                </mxCell>
                <mxCell id="_uoD1ZFytrmZBjL5e5ex-72" value="訂單頁面" style="rounded=0;whiteSpace=wrap;html=1;" parent="WIyWlLk6GJQsqaUBKTNV-1" vertex="1">
                    <mxGeometry x="880" y="575" width="80" height="30" as="geometry"/>
                </mxCell>
                <mxCell id="_uoD1ZFytrmZBjL5e5ex-73" value="送出訂單" style="text;html=1;strokeColor=none;fillColor=none;align=center;verticalAlign=middle;whiteSpace=wrap;rounded=0;" parent="WIyWlLk6GJQsqaUBKTNV-1" vertex="1" visible="0">
                    <mxGeometry x="630" y="300" width="60" height="30" as="geometry"/>
                </mxCell>
                <mxCell id="_uoD1ZFytrmZBjL5e5ex-85" value="" style="endArrow=classic;html=1;rounded=0;" parent="WIyWlLk6GJQsqaUBKTNV-1" edge="1">
                    <mxGeometry width="50" height="50" relative="1" as="geometry">
                        <mxPoint x="960" y="589" as="sourcePoint"/>
                        <mxPoint x="1020" y="589" as="targetPoint"/>
                        <Array as="points"/>
                    </mxGeometry>
                </mxCell>
                <mxCell id="_uoD1ZFytrmZBjL5e5ex-88" value="" style="edgeStyle=orthogonalEdgeStyle;rounded=0;orthogonalLoop=1;jettySize=auto;html=1;" parent="WIyWlLk6GJQsqaUBKTNV-1" target="_uoD1ZFytrmZBjL5e5ex-72" edge="1">
                    <mxGeometry relative="1" as="geometry">
                        <mxPoint x="1010" y="590" as="sourcePoint"/>
                    </mxGeometry>
                </mxCell>
                <mxCell id="_uoD1ZFytrmZBjL5e5ex-86" value="依照付款方式" style="rounded=1;whiteSpace=wrap;html=1;" parent="WIyWlLk6GJQsqaUBKTNV-1" vertex="1">
                    <mxGeometry x="1020" y="575" width="90" height="30" as="geometry"/>
                </mxCell>
                <mxCell id="_uoD1ZFytrmZBjL5e5ex-91" value="&lt;ol&gt;&lt;li&gt;付款方式&lt;/li&gt;&lt;li&gt;配送方式&lt;/li&gt;&lt;li&gt;選填資料?&lt;/li&gt;&lt;/ol&gt;" style="text;strokeColor=none;fillColor=none;html=1;whiteSpace=wrap;verticalAlign=middle;overflow=hidden;" parent="WIyWlLk6GJQsqaUBKTNV-1" vertex="1">
                    <mxGeometry x="860" y="590" width="100" height="80" as="geometry"/>
                </mxCell>
                <mxCell id="_uoD1ZFytrmZBjL5e5ex-92" value="不成功導回" style="text;html=1;strokeColor=none;fillColor=none;align=center;verticalAlign=middle;whiteSpace=wrap;rounded=0;" parent="WIyWlLk6GJQsqaUBKTNV-1" vertex="1">
                    <mxGeometry x="960" y="595" width="60" height="30" as="geometry"/>
                </mxCell>
                <mxCell id="_uoD1ZFytrmZBjL5e5ex-93" value="" style="strokeWidth=2;html=1;shape=mxgraph.flowchart.annotation_2;align=left;labelPosition=right;pointerEvents=1;" parent="WIyWlLk6GJQsqaUBKTNV-1" vertex="1">
                    <mxGeometry x="1110" y="540" width="40" height="100" as="geometry"/>
                </mxCell>
                <mxCell id="_uoD1ZFytrmZBjL5e5ex-94" value="第三方付款" style="text;html=1;strokeColor=none;fillColor=none;align=center;verticalAlign=middle;whiteSpace=wrap;rounded=0;" parent="WIyWlLk6GJQsqaUBKTNV-1" vertex="1">
                    <mxGeometry x="1150" y="520" width="60" height="30" as="geometry"/>
                </mxCell>
                <mxCell id="_uoD1ZFytrmZBjL5e5ex-95" value="到付" style="text;html=1;strokeColor=none;fillColor=none;align=center;verticalAlign=middle;whiteSpace=wrap;rounded=0;" parent="WIyWlLk6GJQsqaUBKTNV-1" vertex="1">
                    <mxGeometry x="1150" y="625" width="60" height="30" as="geometry"/>
                </mxCell>
                <mxCell id="_uoD1ZFytrmZBjL5e5ex-96" value="會員中心" style="whiteSpace=wrap;html=1;rounded=1;" parent="WIyWlLk6GJQsqaUBKTNV-1" vertex="1">
                    <mxGeometry x="270" y="293.75" width="100" height="42.5" as="geometry"/>
                </mxCell>
                <mxCell id="_uoD1ZFytrmZBjL5e5ex-99" value="" style="strokeWidth=2;html=1;shape=mxgraph.flowchart.annotation_2;align=left;labelPosition=right;pointerEvents=1;" parent="WIyWlLk6GJQsqaUBKTNV-1" vertex="1">
                    <mxGeometry x="540" y="360" width="50" height="100" as="geometry"/>
                </mxCell>
                <mxCell id="_uoD1ZFytrmZBjL5e5ex-100" value="訂單管理" style="rounded=1;whiteSpace=wrap;html=1;arcSize=0;" parent="WIyWlLk6GJQsqaUBKTNV-1" vertex="1">
                    <mxGeometry x="590" y="340" width="90" height="40" as="geometry"/>
                </mxCell>
                <mxCell id="_uoD1ZFytrmZBjL5e5ex-131" value="" style="edgeStyle=orthogonalEdgeStyle;rounded=0;orthogonalLoop=1;jettySize=auto;html=1;" parent="WIyWlLk6GJQsqaUBKTNV-1" source="_uoD1ZFytrmZBjL5e5ex-101" target="_uoD1ZFytrmZBjL5e5ex-144" edge="1">
                    <mxGeometry relative="1" as="geometry">
                        <mxPoint x="710" y="460" as="targetPoint"/>
                    </mxGeometry>
                </mxCell>
                <mxCell id="_uoD1ZFytrmZBjL5e5ex-101" value="訂單管理" style="rounded=1;whiteSpace=wrap;html=1;arcSize=0;" parent="WIyWlLk6GJQsqaUBKTNV-1" vertex="1">
                    <mxGeometry x="590" y="440" width="90" height="40" as="geometry"/>
                </mxCell>
                <mxCell id="_uoD1ZFytrmZBjL5e5ex-102" value="賣家" style="text;html=1;strokeColor=none;fillColor=none;align=center;verticalAlign=middle;whiteSpace=wrap;rounded=0;" parent="WIyWlLk6GJQsqaUBKTNV-1" vertex="1">
                    <mxGeometry x="520" y="360" width="60" height="30" as="geometry"/>
                </mxCell>
                <mxCell id="_uoD1ZFytrmZBjL5e5ex-103" value="買家" style="text;html=1;strokeColor=none;fillColor=none;align=center;verticalAlign=middle;whiteSpace=wrap;rounded=0;" parent="WIyWlLk6GJQsqaUBKTNV-1" vertex="1">
                    <mxGeometry x="520" y="430" width="60" height="30" as="geometry"/>
                </mxCell>
                <mxCell id="_uoD1ZFytrmZBjL5e5ex-105" value="" style="endArrow=classic;html=1;rounded=0;" parent="WIyWlLk6GJQsqaUBKTNV-1" edge="1">
                    <mxGeometry width="50" height="50" relative="1" as="geometry">
                        <mxPoint x="680" y="360" as="sourcePoint"/>
                        <mxPoint x="740" y="360" as="targetPoint"/>
                    </mxGeometry>
                </mxCell>
                <mxCell id="_uoD1ZFytrmZBjL5e5ex-108" value="配送狀態更改&lt;br&gt;已出貨" style="rounded=1;whiteSpace=wrap;html=1;arcSize=0;" parent="WIyWlLk6GJQsqaUBKTNV-1" vertex="1">
                    <mxGeometry x="740" y="340" width="100" height="40" as="geometry"/>
                </mxCell>
                <mxCell id="_uoD1ZFytrmZBjL5e5ex-109" value="確認出貨" style="text;html=1;strokeColor=none;fillColor=none;align=center;verticalAlign=middle;whiteSpace=wrap;rounded=0;" parent="WIyWlLk6GJQsqaUBKTNV-1" vertex="1">
                    <mxGeometry x="680" y="320" width="60" height="30" as="geometry"/>
                </mxCell>
                <mxCell id="_uoD1ZFytrmZBjL5e5ex-110" value="" style="endArrow=classic;html=1;rounded=0;" parent="WIyWlLk6GJQsqaUBKTNV-1" edge="1">
                    <mxGeometry width="50" height="50" relative="1" as="geometry">
                        <mxPoint x="840" y="360" as="sourcePoint"/>
                        <mxPoint x="900" y="360" as="targetPoint"/>
                    </mxGeometry>
                </mxCell>
                <mxCell id="_uoD1ZFytrmZBjL5e5ex-112" value="配合物流更改狀態" style="ellipse;whiteSpace=wrap;html=1;aspect=fixed;" parent="WIyWlLk6GJQsqaUBKTNV-1" vertex="1">
                    <mxGeometry x="900" y="320" width="80" height="80" as="geometry"/>
                </mxCell>
                <mxCell id="_uoD1ZFytrmZBjL5e5ex-113" value="" style="endArrow=classic;html=1;rounded=0;" parent="WIyWlLk6GJQsqaUBKTNV-1" edge="1">
                    <mxGeometry width="50" height="50" relative="1" as="geometry">
                        <mxPoint x="980" y="360" as="sourcePoint"/>
                        <mxPoint x="1030" y="360" as="targetPoint"/>
                    </mxGeometry>
                </mxCell>
                <mxCell id="_uoD1ZFytrmZBjL5e5ex-114" value="買家確認收貨&lt;br&gt;狀態更改&lt;br&gt;訂單結束+配送成功" style="rounded=1;whiteSpace=wrap;html=1;arcSize=0;" parent="WIyWlLk6GJQsqaUBKTNV-1" vertex="1">
                    <mxGeometry x="1030" y="330" width="120" height="60" as="geometry"/>
                </mxCell>
                <mxCell id="_uoD1ZFytrmZBjL5e5ex-120" value="" style="curved=1;endArrow=classic;html=1;rounded=0;entryX=0.5;entryY=1;entryDx=0;entryDy=0;startArrow=none;exitX=0.5;exitY=0;exitDx=0;exitDy=0;" parent="WIyWlLk6GJQsqaUBKTNV-1" source="_uoD1ZFytrmZBjL5e5ex-72" target="_uoD1ZFytrmZBjL5e5ex-101" edge="1">
                    <mxGeometry width="50" height="50" relative="1" as="geometry">
                        <mxPoint x="790" y="520" as="sourcePoint"/>
                        <mxPoint x="780" y="480" as="targetPoint"/>
                        <Array as="points"/>
                    </mxGeometry>
                </mxCell>
                <mxCell id="_uoD1ZFytrmZBjL5e5ex-122" value="" style="shape=flexArrow;endArrow=classic;startArrow=classic;html=1;rounded=0;entryX=0.5;entryY=1;entryDx=0;entryDy=0;exitX=0.5;exitY=0;exitDx=0;exitDy=0;width=4;endSize=4.13;startSize=4.13;endWidth=9;startWidth=9;" parent="WIyWlLk6GJQsqaUBKTNV-1" source="_uoD1ZFytrmZBjL5e5ex-101" target="_uoD1ZFytrmZBjL5e5ex-100" edge="1">
                    <mxGeometry width="100" height="100" relative="1" as="geometry">
                        <mxPoint x="870" y="550" as="sourcePoint"/>
                        <mxPoint x="970" y="450" as="targetPoint"/>
                    </mxGeometry>
                </mxCell>
                <mxCell id="_uoD1ZFytrmZBjL5e5ex-123" value="線上付款" style="text;html=1;strokeColor=none;fillColor=none;align=center;verticalAlign=middle;whiteSpace=wrap;rounded=0;" parent="WIyWlLk6GJQsqaUBKTNV-1" vertex="1">
                    <mxGeometry x="1070" y="545" width="60" height="30" as="geometry"/>
                </mxCell>
                <mxCell id="_uoD1ZFytrmZBjL5e5ex-126" value="&lt;div&gt;&lt;br&gt;&lt;/div&gt;&lt;ol&gt;&lt;li&gt;追蹤商品&lt;/li&gt;&lt;li&gt;取消訂單&lt;/li&gt;&lt;/ol&gt;" style="text;strokeColor=none;fillColor=none;html=1;whiteSpace=wrap;verticalAlign=middle;overflow=hidden;" parent="WIyWlLk6GJQsqaUBKTNV-1" vertex="1">
                    <mxGeometry x="550" y="460" width="120" height="60" as="geometry"/>
                </mxCell>
                <mxCell id="_uoD1ZFytrmZBjL5e5ex-130" value="成功訂單評論" style="whiteSpace=wrap;html=1;rounded=1;" parent="WIyWlLk6GJQsqaUBKTNV-1" vertex="1">
                    <mxGeometry x="845" y="445" width="95" height="30" as="geometry"/>
                </mxCell>
                <mxCell id="_uoD1ZFytrmZBjL5e5ex-132" style="edgeStyle=orthogonalEdgeStyle;rounded=0;orthogonalLoop=1;jettySize=auto;html=1;exitX=0.5;exitY=1;exitDx=0;exitDy=0;" parent="WIyWlLk6GJQsqaUBKTNV-1" source="_uoD1ZFytrmZBjL5e5ex-130" target="_uoD1ZFytrmZBjL5e5ex-130" edge="1">
                    <mxGeometry relative="1" as="geometry"/>
                </mxCell>
                <mxCell id="_uoD1ZFytrmZBjL5e5ex-138" value="" style="strokeWidth=2;html=1;shape=mxgraph.flowchart.annotation_2;align=left;labelPosition=right;pointerEvents=1;" parent="WIyWlLk6GJQsqaUBKTNV-1" vertex="1">
                    <mxGeometry x="940" y="440" width="20" height="40" as="geometry"/>
                </mxCell>
                <mxCell id="_uoD1ZFytrmZBjL5e5ex-143" value="" style="curved=1;endArrow=classic;html=1;rounded=0;exitX=0.113;exitY=1.017;exitDx=0;exitDy=0;entryX=0.709;entryY=0.063;entryDx=0;entryDy=0;entryPerimeter=0;exitPerimeter=0;" parent="WIyWlLk6GJQsqaUBKTNV-1" source="_uoD1ZFytrmZBjL5e5ex-114" target="_uoD1ZFytrmZBjL5e5ex-144" edge="1">
                    <mxGeometry width="50" height="50" relative="1" as="geometry">
                        <mxPoint x="960" y="460" as="sourcePoint"/>
                        <mxPoint x="780" y="420" as="targetPoint"/>
                        <Array as="points">
                            <mxPoint x="900" y="420"/>
                        </Array>
                    </mxGeometry>
                </mxCell>
                <mxCell id="_uoD1ZFytrmZBjL5e5ex-144" value="1.收貨成功&lt;br&gt;2.退貨&lt;br&gt;3.未收到" style="ellipse;whiteSpace=wrap;html=1;aspect=fixed;" parent="WIyWlLk6GJQsqaUBKTNV-1" vertex="1">
                    <mxGeometry x="730" y="425" width="70" height="70" as="geometry"/>
                </mxCell>
                <mxCell id="_uoD1ZFytrmZBjL5e5ex-145" value="" style="endArrow=classic;html=1;rounded=0;entryX=0;entryY=0.5;entryDx=0;entryDy=0;" parent="WIyWlLk6GJQsqaUBKTNV-1" target="_uoD1ZFytrmZBjL5e5ex-130" edge="1">
                    <mxGeometry width="50" height="50" relative="1" as="geometry">
                        <mxPoint x="800" y="460" as="sourcePoint"/>
                        <mxPoint x="840" y="460" as="targetPoint"/>
                    </mxGeometry>
                </mxCell>
                <mxCell id="_uoD1ZFytrmZBjL5e5ex-146" value="成功" style="text;html=1;strokeColor=none;fillColor=none;align=center;verticalAlign=middle;whiteSpace=wrap;rounded=0;" parent="WIyWlLk6GJQsqaUBKTNV-1" vertex="1">
                    <mxGeometry x="790" y="425" width="60" height="30" as="geometry"/>
                </mxCell>
                <mxCell id="_uoD1ZFytrmZBjL5e5ex-147" value="增加評論" style="text;html=1;strokeColor=none;fillColor=none;align=center;verticalAlign=middle;whiteSpace=wrap;rounded=0;" parent="WIyWlLk6GJQsqaUBKTNV-1" vertex="1">
                    <mxGeometry x="960" y="425" width="60" height="30" as="geometry"/>
                </mxCell>
                <mxCell id="_uoD1ZFytrmZBjL5e5ex-148" value="略過Null" style="text;html=1;strokeColor=none;fillColor=none;align=center;verticalAlign=middle;whiteSpace=wrap;rounded=0;" parent="WIyWlLk6GJQsqaUBKTNV-1" vertex="1">
                    <mxGeometry x="960" y="460" width="60" height="30" as="geometry"/>
                </mxCell>
                <mxCell id="_uoD1ZFytrmZBjL5e5ex-149" value="訂單" style="rounded=1;whiteSpace=wrap;html=1;arcSize=1;" parent="WIyWlLk6GJQsqaUBKTNV-1" vertex="1">
                    <mxGeometry x="440" y="385" width="100" height="45" as="geometry"/>
                </mxCell>
                <mxCell id="_uoD1ZFytrmZBjL5e5ex-156" value="訂單成立" style="text;html=1;strokeColor=none;fillColor=none;align=center;verticalAlign=middle;whiteSpace=wrap;rounded=0;shadow=0;" parent="WIyWlLk6GJQsqaUBKTNV-1" vertex="1">
                    <mxGeometry x="785" y="510" width="60" height="30" as="geometry"/>
                </mxCell>
                <mxCell id="_uoD1ZFytrmZBjL5e5ex-158" value="" style="strokeWidth=2;html=1;shape=mxgraph.flowchart.annotation_2;align=left;labelPosition=right;pointerEvents=1;shadow=0;" parent="WIyWlLk6GJQsqaUBKTNV-1" vertex="1">
                    <mxGeometry x="370" y="220" width="69" height="190" as="geometry"/>
                </mxCell>
                <mxCell id="_uoD1ZFytrmZBjL5e5ex-162" value="" style="edgeStyle=orthogonalEdgeStyle;rounded=0;orthogonalLoop=1;jettySize=auto;html=1;" parent="WIyWlLk6GJQsqaUBKTNV-1" source="_uoD1ZFytrmZBjL5e5ex-159" target="_uoD1ZFytrmZBjL5e5ex-161" edge="1">
                    <mxGeometry relative="1" as="geometry"/>
                </mxCell>
                <mxCell id="_uoD1ZFytrmZBjL5e5ex-159" value="商品管理" style="rounded=1;whiteSpace=wrap;html=1;shadow=0;arcSize=50;" parent="WIyWlLk6GJQsqaUBKTNV-1" vertex="1">
                    <mxGeometry x="440" y="200" width="101" height="40" as="geometry"/>
                </mxCell>
                <mxCell id="_uoD1ZFytrmZBjL5e5ex-164" style="edgeStyle=orthogonalEdgeStyle;rounded=0;orthogonalLoop=1;jettySize=auto;html=1;exitX=0.5;exitY=1;exitDx=0;exitDy=0;" parent="WIyWlLk6GJQsqaUBKTNV-1" source="_uoD1ZFytrmZBjL5e5ex-161" edge="1">
                    <mxGeometry relative="1" as="geometry">
                        <mxPoint x="640" y="270" as="targetPoint"/>
                    </mxGeometry>
                </mxCell>
                <mxCell id="_uoD1ZFytrmZBjL5e5ex-161" value="商品頁面" style="whiteSpace=wrap;html=1;rounded=1;shadow=0;arcSize=50;" parent="WIyWlLk6GJQsqaUBKTNV-1" vertex="1">
                    <mxGeometry x="590.75" y="195" width="98.5" height="50" as="geometry"/>
                </mxCell>
                <mxCell id="_uoD1ZFytrmZBjL5e5ex-168" value="新增商品" style="rounded=1;whiteSpace=wrap;html=1;shadow=0;arcSize=50;" parent="WIyWlLk6GJQsqaUBKTNV-1" vertex="1">
                    <mxGeometry x="590.75" y="270" width="99.25" height="40" as="geometry"/>
                </mxCell>
                <mxCell id="_uoD1ZFytrmZBjL5e5ex-169" value="沒有商品" style="text;html=1;strokeColor=none;fillColor=none;align=center;verticalAlign=middle;whiteSpace=wrap;rounded=0;shadow=0;" parent="WIyWlLk6GJQsqaUBKTNV-1" vertex="1">
                    <mxGeometry x="530.75" y="280" width="60" height="30" as="geometry"/>
                </mxCell>
                <mxCell id="_uoD1ZFytrmZBjL5e5ex-171" value="" style="endArrow=classic;html=1;rounded=0;entryX=0;entryY=0.5;entryDx=0;entryDy=0;" parent="WIyWlLk6GJQsqaUBKTNV-1" target="_uoD1ZFytrmZBjL5e5ex-176" edge="1">
                    <mxGeometry width="50" height="50" relative="1" as="geometry">
                        <mxPoint x="690" y="220" as="sourcePoint"/>
                        <mxPoint x="740" y="218.75" as="targetPoint"/>
                    </mxGeometry>
                </mxCell>
                <mxCell id="_uoD1ZFytrmZBjL5e5ex-173" value="" style="edgeStyle=segmentEdgeStyle;endArrow=classic;html=1;rounded=0;entryX=0.5;entryY=1;entryDx=0;entryDy=0;" parent="WIyWlLk6GJQsqaUBKTNV-1" target="_uoD1ZFytrmZBjL5e5ex-176" edge="1">
                    <mxGeometry width="50" height="50" relative="1" as="geometry">
                        <mxPoint x="689.25" y="290" as="sourcePoint"/>
                        <mxPoint x="790" y="240" as="targetPoint"/>
                        <Array as="points">
                            <mxPoint x="790" y="290"/>
                        </Array>
                    </mxGeometry>
                </mxCell>
                <mxCell id="_uoD1ZFytrmZBjL5e5ex-174" value="有商品" style="text;html=1;strokeColor=none;fillColor=none;align=center;verticalAlign=middle;whiteSpace=wrap;rounded=0;shadow=0;" parent="WIyWlLk6GJQsqaUBKTNV-1" vertex="1">
                    <mxGeometry x="700" y="240" width="60" height="30" as="geometry"/>
                </mxCell>
                <mxCell id="_uoD1ZFytrmZBjL5e5ex-176" value="管理商品狀態" style="rounded=1;whiteSpace=wrap;html=1;shadow=0;arcSize=50;" parent="WIyWlLk6GJQsqaUBKTNV-1" vertex="1">
                    <mxGeometry x="745" y="200" width="90" height="40" as="geometry"/>
                </mxCell>
                <mxCell id="_uoD1ZFytrmZBjL5e5ex-177" value="" style="strokeWidth=2;html=1;shape=mxgraph.flowchart.annotation_2;align=left;labelPosition=right;pointerEvents=1;shadow=0;" parent="WIyWlLk6GJQsqaUBKTNV-1" vertex="1">
                    <mxGeometry x="840" y="168.75" width="50" height="100" as="geometry"/>
                </mxCell>
                <mxCell id="_uoD1ZFytrmZBjL5e5ex-178" value="&lt;b&gt;&lt;font style=&quot;font-size: 12px&quot;&gt;庫存狀態&lt;/font&gt;&lt;/b&gt;" style="rounded=1;whiteSpace=wrap;html=1;shadow=0;" parent="WIyWlLk6GJQsqaUBKTNV-1" vertex="1">
                    <mxGeometry x="890" y="148.75" width="90" height="35" as="geometry"/>
                </mxCell>
                <mxCell id="_uoD1ZFytrmZBjL5e5ex-185" value="" style="strokeWidth=2;html=1;shape=mxgraph.flowchart.annotation_2;align=left;labelPosition=right;pointerEvents=1;shadow=0;fontSize=14;" parent="WIyWlLk6GJQsqaUBKTNV-1" vertex="1">
                    <mxGeometry x="980" y="143.75" width="30" height="50" as="geometry"/>
                </mxCell>
                <mxCell id="_uoD1ZFytrmZBjL5e5ex-200" style="edgeStyle=orthogonalEdgeStyle;rounded=0;orthogonalLoop=1;jettySize=auto;html=1;exitX=1;exitY=0.5;exitDx=0;exitDy=0;entryX=1;entryY=0.5;entryDx=0;entryDy=0;fontSize=14;" parent="WIyWlLk6GJQsqaUBKTNV-1" source="_uoD1ZFytrmZBjL5e5ex-187" target="_uoD1ZFytrmZBjL5e5ex-197" edge="1">
                    <mxGeometry relative="1" as="geometry">
                        <Array as="points">
                            <mxPoint x="1120" y="139"/>
                            <mxPoint x="1120" y="270"/>
                        </Array>
                    </mxGeometry>
                </mxCell>
                <mxCell id="_uoD1ZFytrmZBjL5e5ex-187" value="0庫存&lt;br&gt;&amp;nbsp;block商品下架" style="text;html=1;strokeColor=none;fillColor=none;align=center;verticalAlign=middle;whiteSpace=wrap;rounded=0;shadow=0;fontSize=14;" parent="WIyWlLk6GJQsqaUBKTNV-1" vertex="1">
                    <mxGeometry x="1011" y="123.75" width="70" height="30" as="geometry"/>
                </mxCell>
                <mxCell id="_uoD1ZFytrmZBjL5e5ex-199" style="edgeStyle=orthogonalEdgeStyle;rounded=0;orthogonalLoop=1;jettySize=auto;html=1;exitX=1;exitY=0.5;exitDx=0;exitDy=0;fontSize=14;" parent="WIyWlLk6GJQsqaUBKTNV-1" source="_uoD1ZFytrmZBjL5e5ex-195" target="_uoD1ZFytrmZBjL5e5ex-197" edge="1">
                    <mxGeometry relative="1" as="geometry"/>
                </mxCell>
                <mxCell id="_uoD1ZFytrmZBjL5e5ex-195" value="有庫存" style="text;html=1;strokeColor=none;fillColor=none;align=center;verticalAlign=middle;whiteSpace=wrap;rounded=0;shadow=0;fontSize=14;" parent="WIyWlLk6GJQsqaUBKTNV-1" vertex="1">
                    <mxGeometry x="1016" y="178.75" width="64" height="30" as="geometry"/>
                </mxCell>
                <mxCell id="_uoD1ZFytrmZBjL5e5ex-197" value="&#10;&#10;&lt;span style=&quot;color: rgb(0, 0, 0); font-family: helvetica; font-size: 14px; font-style: normal; font-weight: 400; letter-spacing: normal; text-align: center; text-indent: 0px; text-transform: none; word-spacing: 0px; background-color: rgb(248, 249, 250); display: inline; float: none;&quot;&gt;上/下架狀態&lt;/span&gt;&#10;&#10;" style="rounded=1;whiteSpace=wrap;html=1;shadow=0;fontSize=14;arcSize=50;" parent="WIyWlLk6GJQsqaUBKTNV-1" vertex="1">
                    <mxGeometry x="890" y="250" width="80" height="40" as="geometry"/>
                </mxCell>
                <mxCell id="_uoD1ZFytrmZBjL5e5ex-203" value="" style="strokeWidth=2;html=1;shape=mxgraph.flowchart.annotation_1;align=left;pointerEvents=1;shadow=0;fontSize=14;" parent="WIyWlLk6GJQsqaUBKTNV-1" vertex="1">
                    <mxGeometry x="405" y="120" width="35" height="100" as="geometry"/>
                </mxCell>
                <mxCell id="_uoD1ZFytrmZBjL5e5ex-208" value="" style="edgeStyle=orthogonalEdgeStyle;rounded=0;orthogonalLoop=1;jettySize=auto;html=1;fontSize=14;" parent="WIyWlLk6GJQsqaUBKTNV-1" source="_uoD1ZFytrmZBjL5e5ex-206" target="_uoD1ZFytrmZBjL5e5ex-207" edge="1">
                    <mxGeometry relative="1" as="geometry"/>
                </mxCell>
                <mxCell id="_uoD1ZFytrmZBjL5e5ex-206" value="收藏" style="rounded=1;whiteSpace=wrap;html=1;shadow=0;fontSize=14;arcSize=50;" parent="WIyWlLk6GJQsqaUBKTNV-1" vertex="1">
                    <mxGeometry x="439" y="104.38" width="101" height="30" as="geometry"/>
                </mxCell>
                <mxCell id="_uoD1ZFytrmZBjL5e5ex-207" value="收藏商品頁面" style="whiteSpace=wrap;html=1;fontSize=14;rounded=1;shadow=0;arcSize=32;direction=south;" parent="WIyWlLk6GJQsqaUBKTNV-1" vertex="1">
                    <mxGeometry x="576.56" y="100.94" width="126.88" height="36.88" as="geometry"/>
                </mxCell>
                <mxCell id="_uoD1ZFytrmZBjL5e5ex-211" value="" style="strokeWidth=2;html=1;shape=mxgraph.flowchart.annotation_1;align=left;pointerEvents=1;shadow=0;fontSize=14;" parent="WIyWlLk6GJQsqaUBKTNV-1" vertex="1">
                    <mxGeometry x="405" y="20" width="35" height="100" as="geometry"/>
                </mxCell>
                <mxCell id="_uoD1ZFytrmZBjL5e5ex-215" value="" style="edgeStyle=orthogonalEdgeStyle;rounded=0;orthogonalLoop=1;jettySize=auto;html=1;fontSize=14;" parent="WIyWlLk6GJQsqaUBKTNV-1" source="_uoD1ZFytrmZBjL5e5ex-212" target="_uoD1ZFytrmZBjL5e5ex-214" edge="1">
                    <mxGeometry relative="1" as="geometry"/>
                </mxCell>
                <mxCell id="_uoD1ZFytrmZBjL5e5ex-212" value="會員資料" style="rounded=1;whiteSpace=wrap;html=1;shadow=0;fontSize=14;arcSize=50;" parent="WIyWlLk6GJQsqaUBKTNV-1" vertex="1">
                    <mxGeometry x="439.75" width="100.25" height="40" as="geometry"/>
                </mxCell>
                <mxCell id="_uoD1ZFytrmZBjL5e5ex-214" value="" style="whiteSpace=wrap;html=1;fontSize=14;rounded=1;shadow=0;arcSize=50;" parent="WIyWlLk6GJQsqaUBKTNV-1" vertex="1">
                    <mxGeometry x="604.75" y="-10" width="102" height="60" as="geometry"/>
                </mxCell>
                <mxCell id="_uoD1ZFytrmZBjL5e5ex-216" value="&lt;ul&gt;&lt;li&gt;修改密碼&lt;/li&gt;&lt;li&gt;會員資料&lt;/li&gt;&lt;/ul&gt;" style="text;strokeColor=none;fillColor=none;html=1;whiteSpace=wrap;verticalAlign=middle;overflow=hidden;shadow=0;fontSize=14;" parent="WIyWlLk6GJQsqaUBKTNV-1" vertex="1">
                    <mxGeometry x="590.75" y="-10" width="130" height="50" as="geometry"/>
                </mxCell>
            </root>
        </mxGraphModel>
    </diagram>
    <diagram id="89R_yY4PxjAorBoCEb1Z" name="第2頁">
        <mxGraphModel dx="600" dy="487" grid="1" gridSize="10" guides="1" tooltips="1" connect="1" arrows="1" fold="1" page="1" pageScale="1" pageWidth="827" pageHeight="1169" math="0" shadow="0">
            <root>
                <mxCell id="7w31OYThVCx8LADjCd6c-0"/>
                <mxCell id="7w31OYThVCx8LADjCd6c-1" parent="7w31OYThVCx8LADjCd6c-0"/>
            </root>
        </mxGraphModel>
    </diagram>
</mxfile>